<?xml version="1.0" encoding="UTF-8"?>
<svg id="Layer_1" data-name="Layer 1" xmlns="http://www.w3.org/2000/svg" viewBox="0 0 20.22 20.22">
  <defs>
    <style>
      .cls-1 {
        fill: none;
      }

      .cls-2 {
        fill: #010101;
        fill-rule: evenodd;
      }
    </style>
  </defs>
  <g id="_223912936" data-name=" 223912936">
    <path id="_223914016" data-name=" 223914016" class="cls-2" d="M10.11,12.4c-1.42,0-2.57-1.15-2.57-2.57s1.15-2.57,2.57-2.57,2.57,1.15,2.57,2.57c0,1.42-1.15,2.57-2.57,2.57ZM10.11,7.58c-1.24,0-2.25,1.01-2.25,2.25s1.01,2.25,2.25,2.25,2.25-1.01,2.25-2.25-1.01-2.25-2.25-2.25Z"/>
    <path id="_223913632" data-name=" 223913632" class="cls-2" d="M9.37,11.23s-.09-.02-.12-.06l-1.02-1.23c-.05-.06-.05-.14,0-.2l1.02-1.24c.06-.07.16-.08.22-.02.07.06.08.16.02.22l-.94,1.13.94,1.13c.06.07.05.17-.02.22-.03.02-.07.04-.1.04h0Z"/>
    <path id="_223913536" data-name=" 223913536" class="cls-2" d="M10.86,11.23s-.07-.01-.1-.04c-.07-.06-.08-.16-.02-.22l.94-1.13-.94-1.13c-.06-.07-.05-.17.02-.22.07-.06.17-.05.22.02l1.03,1.24c.05.06.05.14,0,.2l-1.03,1.23s-.07.06-.12.06h0Z"/>
    <path id="_223914064" data-name=" 223914064" class="cls-2" d="M9.72,11.44s-.03,0-.04,0c-.08-.02-.14-.11-.11-.19l.78-2.89c.02-.08.11-.14.19-.11.08.02.14.11.11.19l-.78,2.89c-.02.07-.08.12-.15.12h0Z"/>
    <path id="_223913440" data-name=" 223913440" class="cls-2" d="M16.11,15.3H4.11c-.87,0-1.58-.71-1.58-1.58,0-.56.45-1.01,1-1.01h13.15c.56,0,1.01.45,1.01,1.01,0,.88-.71,1.58-1.58,1.58h0ZM3.53,13.02c-.38,0-.69.31-.69.69,0,.7.57,1.27,1.27,1.27h12c.7,0,1.27-.57,1.27-1.27,0-.38-.31-.69-.69-.69H3.53Z"/>
    <path id="_223913488" data-name=" 223913488" class="cls-2" d="M7.43,15.3s-.05,0-.07-.02c-.08-.04-.11-.14-.07-.21l.35-.7c.08-.16.19-.39.46-.39h4.02c.27,0,.37.22.45.38l.36.71c.04.08,0,.17-.07.21-.08.04-.17,0-.21-.07l-.36-.71c-.08-.16-.11-.21-.17-.21h-4.02c-.06,0-.09.05-.17.21l-.02.04-.33.67c-.03.06-.08.09-.14.09h0Z"/>
    <path id="_223913200" data-name=" 223913200" class="cls-2" d="M16.57,13.02c-.09,0-.16-.07-.16-.16v-6.82c0-.44-.36-.81-.81-.81H4.62c-.44,0-.81.36-.81.81v6.82c0,.09-.07.16-.16.16s-.16-.07-.16-.16v-6.82c0-.62.51-1.12,1.12-1.12h10.98c.62,0,1.12.51,1.12,1.12v6.82c0,.09-.07.16-.16.16h0Z"/>
    <path id="_223912984" data-name=" 223912984" class="cls-2" d="M15.79,13.02c-.09,0-.16-.07-.16-.16v-6.82s-.02-.03-.03-.03H4.62s-.03.02-.03.03v6.82c0,.09-.07.16-.16.16s-.16-.07-.16-.16v-6.82c0-.19.16-.35.35-.35h10.98c.19,0,.35.16.35.35v6.82c0,.09-.07.16-.16.16h0Z"/>
    <path id="_223913416" data-name=" 223913416" class="cls-2" d="M10.11,6.95c-.6,0-1.08-.49-1.08-1.09,0-.08.07-.15.15-.15s.15.07.15.15c0,.43.34.78.78.78s.78-.35.78-.78c0-.08.07-.15.15-.15s.15.07.15.15c0,.6-.48,1.09-1.08,1.09h0Z"/>
    <path id="_223912864" data-name=" 223912864" class="cls-2" d="M10.31,6.43h-.41c-.09,0-.16-.07-.16-.16s.07-.16.16-.16h.41c.09,0,.16.07.16.16s-.07.16-.16.16Z"/>
    <path id="_223912816" data-name=" 223912816" class="cls-2" d="M15.46,14.51c-.28,0-.51-.23-.51-.51s.23-.51.51-.51.51.23.51.51-.23.51-.51.51ZM15.46,13.81c-.11,0-.19.09-.19.19s.09.19.19.19.19-.09.19-.19c0-.11-.08-.19-.19-.19Z"/>
    <path id="_223913344" data-name=" 223913344" class="cls-2" d="M4.77,14.51c-.28,0-.51-.23-.51-.51s.23-.51.51-.51.51.23.51.51-.23.51-.51.51ZM4.77,13.81c-.11,0-.19.09-.19.19s.09.19.19.19.19-.09.19-.19c0-.11-.09-.19-.19-.19Z"/>
    <rect id="_223913104" data-name=" 223913104" class="cls-1" width="20.22" height="20.22"/>
  </g>
</svg>