<?xml version="1.0" encoding="UTF-8"?>
<svg id="Layer_1" data-name="Layer 1" xmlns="http://www.w3.org/2000/svg" viewBox="0 0 17 17">
  <defs>
    <style>
      .cls-1 {
        fill: #010101;
      }
    </style>
  </defs>
  <path class="cls-1" d="M14.94,17H2.06c-1.13,0-2.06-.92-2.06-2.06V2.06C0,.92.92,0,2.06,0h12.89c1.13,0,2.06.92,2.06,2.06v12.89c0,1.13-.92,2.06-2.06,2.06ZM2.06.85c-.66,0-1.2.54-1.2,1.21v12.89c0,.66.54,1.21,1.2,1.21h12.89c.66,0,1.2-.54,1.2-1.21V2.06c0-.66-.54-1.21-1.2-1.21H2.06Z"/>
  <path class="cls-1" d="M13.3,12.3c-.23,0-.43-.19-.43-.43v-3.58c0-2.41-1.96-4.37-4.37-4.37s-4.37,1.96-4.37,4.37v3.58c0,.23-.19.43-.43.43s-.43-.19-.43-.43v-3.58c0-2.88,2.34-5.22,5.22-5.22s5.22,2.34,5.22,5.22v3.58c0,.23-.19.43-.43.43Z"/>
  <path class="cls-1" d="M5.26,13.9c-1.09,0-1.98-.89-1.98-1.98v-3.43c0-.23.19-.43.43-.43h1.55c1.09,0,1.98.89,1.98,1.98v1.88c0,1.09-.89,1.98-1.98,1.98ZM4.13,8.93v3c0,.62.51,1.13,1.13,1.13s1.13-.51,1.13-1.13v-1.88c0-.62-.51-1.13-1.13-1.13h-1.13Z"/>
  <path class="cls-1" d="M11.74,13.9c-1.09,0-1.98-.89-1.98-1.98v-1.88c0-1.09.89-1.98,1.98-1.98h1.55c.23,0,.43.19.43.43v3.43c0,1.09-.89,1.98-1.98,1.98ZM11.74,8.93c-.62,0-1.13.51-1.13,1.13v1.88c0,.62.51,1.13,1.13,1.13s1.13-.51,1.13-1.13v-3h-1.13Z"/>
</svg>