<?xml version="1.0" encoding="UTF-8"?>
<svg id="Layer_1" data-name="Layer 1" xmlns="http://www.w3.org/2000/svg" viewBox="0 0 17.29 17.29">
  <defs>
    <style>
      .cls-1 {
        fill: none;
      }

      .cls-2 {
        fill: #010101;
        fill-rule: evenodd;
      }
    </style>
  </defs>
  <g id="_223915600" data-name=" 223915600">
    <path id="_223883776" data-name=" 223883776" class="cls-2" d="M14.13,14.39H3.16c-.55,0-.99-.45-.99-1V3.9c0-.55.45-.99.99-.99h10.97c.55,0,1,.45,1,.99v9.49c0,.55-.45,1-1,1ZM3.16,3.17c-.4,0-.72.33-.72.72v9.49c0,.4.33.73.72.73h10.97c.4,0,.73-.33.73-.73V3.9c0-.4-.33-.72-.73-.72H3.16Z"/>
    <path id="_223883752" data-name=" 223883752" class="cls-2" d="M14.99,5.44H2.3c-.07,0-.13-.06-.13-.13s.06-.13.13-.13h12.69c.07,0,.13.06.13.13s-.06.13-.13.13Z"/>
    <path id="_223915840" data-name=" 223915840" class="cls-2" d="M4.18,4.84c-.35,0-.64-.28-.64-.64s.28-.64.64-.64.64.28.64.64-.28.64-.64.64ZM4.18,3.84c-.2,0-.37.16-.37.37s.17.37.37.37.37-.16.37-.37-.17-.37-.37-.37Z"/>
    <path id="_223915936" data-name=" 223915936" class="cls-2" d="M5.78,4.84c-.35,0-.64-.28-.64-.64s.28-.64.64-.64.64.28.64.64-.29.64-.64.64ZM5.78,3.84c-.2,0-.37.16-.37.37s.17.37.37.37.37-.16.37-.37-.16-.37-.37-.37Z"/>
    <path id="_223916032" data-name=" 223916032" class="cls-2" d="M7.37,4.84c-.35,0-.64-.28-.64-.64s.28-.64.64-.64.64.28.64.64-.29.64-.64.64ZM7.37,3.84c-.2,0-.37.16-.37.37s.16.37.37.37.37-.16.37-.37-.16-.37-.37-.37Z"/>
    <path id="_223915816" data-name=" 223915816" class="cls-2" d="M14.11,4.93h-3.46c-.07,0-.13-.06-.13-.13v-1.09c0-.07.06-.13.13-.13h3.46c.07,0,.13.06.13.13v1.09c0,.07-.06.13-.13.13ZM10.79,4.66h3.19v-.82h-3.19v.82Z"/>
    <path id="_223915888" data-name=" 223915888" class="cls-2" d="M9.26,5.44c-.07,0-.13-.06-.13-.13v-2.27c0-.07.06-.13.13-.13s.13.06.13.13v2.27c0,.08-.06.13-.13.13h0Z"/>
    <path id="_223915096" data-name=" 223915096" class="cls-2" d="M8.64,12.84c-1.68,0-3.05-1.37-3.05-3.06s1.37-3.06,3.05-3.06,3.06,1.37,3.06,3.06-1.37,3.06-3.06,3.06ZM8.64,9c-.83,0-1.62-.34-2.19-.93-.37.47-.59,1.07-.59,1.71s.22,1.24.59,1.71c.57-.59,1.36-.93,2.19-.93s1.62.34,2.2.93c.37-.47.59-1.07.59-1.71s-.22-1.24-.59-1.71c-.57.59-1.37.93-2.2.93h0ZM6.62,7.87c.52.55,1.25.87,2.02.87s1.49-.31,2.02-.87c-.48-.51-1.14-.81-1.83-.86,0,0-.02,0-.03,0-.01,0-.02,0-.03,0-.02,0-.04,0-.05,0h-.01s-.04,0-.07,0-.05,0-.07,0h0s-.04,0-.06,0h-.01s-.04,0-.05,0c0,0-.01,0-.02,0-.01,0-.03,0-.04,0-.01,0-.02,0-.03,0-.01,0-.02,0-.03,0-.02,0-.03,0-.05,0h-.02s-.04,0-.06.01h0s-.04,0-.07.01h0c-.11.02-.22.05-.33.09h0s-.03.01-.04.02c0,0-.02,0-.03,0,0,0-.02,0-.03,0-.01,0-.03.01-.04.02h-.02s-.04.02-.05.03h0c-.36.15-.67.38-.94.65h0ZM6.62,11.7c.52.55,1.26.87,2.02.87s1.49-.32,2.02-.87c-.52-.55-1.26-.87-2.02-.87-.77,0-1.49.32-2.02.87Z"/>
    <path id="_223915552" data-name=" 223915552" class="cls-2" d="M8.64,12.84c-.35,0-.67-.33-.9-.94-.21-.57-.33-1.32-.33-2.11s.12-1.54.33-2.11c.23-.61.55-.94.9-.94s.67.33.9.94c.21.57.33,1.32.33,2.11s-.12,1.55-.33,2.11c-.23.61-.55.94-.9.94ZM8.64,7c-.45,0-.95,1.14-.95,2.79s.5,2.79.95,2.79.96-1.14.96-2.79-.5-2.79-.96-2.79Z"/>
    <path id="_223915504" data-name=" 223915504" class="cls-2" d="M11.55,9.92h-5.81c-.07,0-.13-.06-.13-.13s.06-.13.13-.13h5.81c.07,0,.13.06.13.13s-.06.13-.13.13Z"/>
    <path id="_223915456" data-name=" 223915456" class="cls-2" d="M12.1,12.84h-6.93c-.07,0-.13-.06-.13-.13s.06-.13.13-.13h6.93c.07,0,.13.06.13.13s-.06.13-.13.13h0Z"/>
    <rect id="_223915384" data-name=" 223915384" class="cls-1" width="17.29" height="17.29"/>
  </g>
</svg>