<?xml version="1.0" encoding="UTF-8"?>
<svg id="Layer_1" data-name="Layer 1" xmlns="http://www.w3.org/2000/svg" viewBox="0 0 17 17">
  <defs>
    <style>
      .cls-1 {
        fill: #010101;
      }
    </style>
  </defs>
  <path class="cls-1" d="M14.94,17H2.06c-1.13,0-2.06-.92-2.06-2.06V2.06C0,.92.92,0,2.06,0h12.89c1.13,0,2.06.92,2.06,2.06v12.89c0,1.13-.92,2.06-2.06,2.06ZM2.06.85c-.66,0-1.2.54-1.2,1.21v12.89c0,.66.54,1.21,1.2,1.21h12.89c.66,0,1.2-.54,1.2-1.21V2.06c0-.66-.54-1.21-1.2-1.21H2.06Z"/>
  <path class="cls-1" d="M6.11,11.43c-1.22,0-2.21-.99-2.21-2.21v-3.22c0-.23.19-.43.43-.43s.43.19.43.43v3.22c0,.75.61,1.36,1.36,1.36s1.36-.61,1.36-1.36v-3.22c0-.23.19-.43.43-.43s.43.19.43.43v3.22c0,1.22-.99,2.21-2.21,2.21Z"/>
  <path class="cls-1" d="M12.94,11.43c-.14,0-.28-.07-.36-.21l-3.06-5.07c-.12-.2-.06-.46.14-.58.2-.12.46-.06.58.14l3.06,5.07c.12.2.06.46-.14.58-.07.04-.14.06-.22.06Z"/>
  <path class="cls-1" d="M9.87,11.43c-.07,0-.15-.02-.22-.06-.2-.12-.27-.38-.14-.58l3.06-5.07c.12-.2.38-.27.58-.14.2.12.27.38.14.58l-3.06,5.07c-.08.13-.22.21-.36.21Z"/>
</svg>